<svg xmlns="http://www.w3.org/2000/svg" width="32.168" height="33.109" viewBox="0 0 32.168 33.109"><path d="M38.732,18.486l-.616-.853a2.043,2.043,0,0,1-.02-2.375l.6-.859a2.045,2.045,0,0,0-.7-2.97l-.92-.5A2.031,2.031,0,0,1,36.046,8.8l.176-1.042a2.026,2.026,0,0,0-1.908-2.368l-1.042-.047a2.023,2.023,0,0,1-1.854-1.468l-.291-1.015a2.008,2.008,0,0,0-2.734-1.3l-.961.42a2,2,0,0,1-2.3-.514l-.7-.785A2.007,2.007,0,0,0,21.411.7l-.683.8a2.015,2.015,0,0,1-2.294.548l-.968-.4a2.018,2.018,0,0,0-2.72,1.346l-.277,1.015a2.032,2.032,0,0,1-1.834,1.5l-1.042.061a2.026,2.026,0,0,0-1.867,2.4L9.915,9a2.037,2.037,0,0,1-1.008,2.145l-.913.514a2.04,2.04,0,0,0-.65,2.977l.616.853a2.043,2.043,0,0,1,.02,2.375l-.616.866a2.045,2.045,0,0,0,.7,2.97l.92.5a2.031,2.031,0,0,1,1.035,2.131L9.847,25.36a2.026,2.026,0,0,0,1.908,2.368l1.042.047a2.023,2.023,0,0,1,1.854,1.468l.291,1.015a2.008,2.008,0,0,0,2.734,1.3l.961-.42a2.006,2.006,0,0,1,2.3.507l.7.785a2.007,2.007,0,0,0,3.024-.02l.683-.8a2.015,2.015,0,0,1,2.294-.548l.968.4a2.018,2.018,0,0,0,2.72-1.346L31.6,29.1a2.037,2.037,0,0,1,1.834-1.5l1.042-.061a2.029,2.029,0,0,0,1.867-2.4l-.189-1.035a2.037,2.037,0,0,1,1.008-2.145l.913-.514A2.019,2.019,0,0,0,38.732,18.486Zm-15.7,8.14a10.173,10.173,0,1,1,10.1-10.176A10.133,10.133,0,0,1,23.035,26.625Z" transform="translate(-6.954 0)" fill="#ac996b"/><path d="M158.513,145.87l-3.776-.277-1.428-3.532a.791.791,0,0,0-1.468,0l-1.428,3.532-3.776.277a.8.8,0,0,0-.453,1.407l2.889,2.456-.907,3.7a.8.8,0,0,0,1.191.873l3.214-2.01,3.214,2.01a.8.8,0,0,0,1.191-.873l-.907-3.7,2.889-2.456A.8.8,0,0,0,158.513,145.87Z" transform="translate(-136.498 -131.985)" fill="#ac996b"/></svg>