<svg xmlns="http://www.w3.org/2000/svg" width="33.259" height="33.325" viewBox="0 0 33.259 33.325"><text transform="translate(8.827 9.756) rotate(45)" fill="#3390ff" font-size="9" font-family="Montserrat-Black, Montserrat" font-weight="800"><tspan x="0" y="0">MES</tspan></text><path d="M16.912,0A16.658,16.658,0,0,0,.3,15.723a1.121,1.121,0,0,0,.326.854L17.007,33a1.12,1.12,0,0,0,.793.329l.063,0A16.676,16.676,0,0,0,16.912,0ZM4.253,17.043a14.45,14.45,0,0,1,12.29,12.316ZM18.916,30.971A16.679,16.679,0,0,0,2.649,14.67a14.4,14.4,0,1,1,16.267,16.3Z" transform="translate(-0.295)" fill="#3390ff"/></svg>