<svg xmlns="http://www.w3.org/2000/svg" xmlns:xlink="http://www.w3.org/1999/xlink" width="54" height="54" viewBox="0 0 54 54"><defs><clipPath id="a"><rect width="54" height="54" transform="translate(-0.239)" fill="#753bff"/></clipPath></defs><g transform="translate(0.239)"><g clip-path="url(#a)"><path d="M54,27c0,1.716-2.757,3.139-3.077,4.76-.331,1.671,1.666,4.038,1.028,5.575-.649,1.564-3.74,1.823-4.671,3.213s0,4.355-1.188,5.543-4.142.25-5.543,1.188S38.9,51.3,37.335,51.95c-1.537.638-3.9-1.359-5.575-1.028C30.139,51.243,28.716,54,27,54s-3.139-2.757-4.76-3.078c-1.671-.33-4.038,1.666-5.575,1.028-1.564-.649-1.823-3.74-3.213-4.671s-4.355,0-5.543-1.188-.25-4.142-1.188-5.543S2.7,38.9,2.049,37.334c-.637-1.537,1.359-3.9,1.028-5.575C2.756,30.138,0,28.715,0,27s2.756-3.139,3.077-4.76c.331-1.671-1.666-4.038-1.028-5.575C2.7,15.1,5.789,14.841,6.72,13.45s0-4.355,1.188-5.543,4.142-.25,5.543-1.188S15.1,2.7,16.665,2.048c1.537-.638,3.9,1.359,5.575,1.028C23.861,2.756,25.284,0,27,0s3.139,2.757,4.761,3.078c1.671.33,4.038-1.666,5.575-1.028,1.564.649,1.823,3.74,3.213,4.671s4.355,0,5.543,1.188.25,4.142,1.188,5.543S51.3,15.1,51.951,16.664c.638,1.537-1.359,3.9-1.028,5.575C51.243,23.86,54,25.283,54,27" transform="translate(0 0.001)" fill="#753bff"/></g><text transform="translate(9.761 38)" fill="#fff" font-size="11" font-family="Montserrat-Bold, Montserrat" font-weight="700"><tspan x="0" y="0">EN TV</tspan></text><g transform="translate(19 10.36)"><path d="M15.22,2.187a.64.64,0,0,1,0,.905L11.806,6.506a.64.64,0,0,1-.905,0l-2.56-2.56a.64.64,0,0,1,.905-.905l2.107,2.107,2.961-2.961A.64.64,0,0,1,15.22,2.187Z" transform="translate(-3.034 -2)" fill="#fff" fill-rule="evenodd"/><path d="M15.047,11.418a.64.64,0,0,1,0,.905l-2.56,2.56a.64.64,0,0,1-.905,0l-1.254-1.254L8.221,15.737a.64.64,0,0,1-.905-.905l2.56-2.56a.64.64,0,0,1,.905,0l1.254,1.254,2.107-2.107A.64.64,0,0,1,15.047,11.418Z" transform="translate(-2.862 -3.551)" fill="#fff" fill-rule="evenodd"/><path d="M10.32,7.383c-1.818,0-4.305.155-5.843.265a1.014,1.014,0,0,0-.942.914c-.116,1.189-.255,2.888-.255,4.154s.139,2.964.255,4.154a1.014,1.014,0,0,0,.942.914c1.538.11,4.025.265,5.843.265s4.305-.155,5.843-.265a1.014,1.014,0,0,0,.942-.914c.116-1.189.255-2.888.255-4.154s-.139-2.964-.255-4.154a1.014,1.014,0,0,0-.942-.914C14.625,7.538,12.138,7.383,10.32,7.383ZM4.385,6.371C5.924,6.261,8.452,6.1,10.32,6.1s4.4.158,5.935.269a2.294,2.294,0,0,1,2.125,2.067c.116,1.192.261,2.945.261,4.277s-.145,3.085-.261,4.277a2.294,2.294,0,0,1-2.125,2.067c-1.539.11-4.066.269-5.935.269s-4.4-.158-5.935-.269a2.294,2.294,0,0,1-2.125-2.067C2.145,15.8,2,14.048,2,12.716s.145-3.085.261-4.277A2.294,2.294,0,0,1,4.385,6.371Z" transform="translate(-2 -2.689)" fill="#fff" fill-rule="evenodd"/></g></g></svg>